<?xml version="1.0" encoding="utf-8"?>
<!DOCTYPE svg PUBLIC "-//W3C//DTD SVG 20010904//EN" "http://www.w3.org/TR/2001/REC-SVG-20010904/DTD/svg10.dtd">
<svg version="1.0" xmlns="http://www.w3.org/2000/svg" width="256" height="256" viewBox="0 0 2560 2560" preserveAspectRatio="xMidYMid meet">
 <g fill="#000000">
  <path d="M0 1280 c0 -1280 0 -1280 1280 -1280 1280 0 1280 0 1280 1280 0 1280 0 1280 -1280 1280 -1280 0 -1280 0 -1280 -1280z m1620 875 c0 -41 -86 -185 -111 -185 -12 0 -20 121 -11 160 7 30 13 36 42 40 46 7 80 1 80 -15z m-1080 -8 c8 -7 38 -31 65 -54 50 -42 50 -42 188 -36 138 6 138 6 234 -32 94 -39 95 -40 185 -143 66 -76 87 -107 79 -115 -6 -6 -11 -30 -11 -54 0 -39 7 -51 72 -125 39 -46 78 -90 86 -100 12 -14 11 -20 -3 -42 -10 -14 -23 -26 -31 -26 -7 0 -42 26 -76 58 -169 155 -175 156 -272 50 -60 -65 -66 -76 -66 -115 0 -39 7 -51 72 -125 39 -46 78 -90 86 -100 12 -14 11 -20 -3 -42 -10 -14 -23 -26 -31 -26 -7 0 -42 26 -76 58 -35 32 -80 72 -101 90 -48 41 -90 43 -129 5 -28 -26 -28 -26 -137 84 -68 68 -127 139 -155 184 -44 74 -44 74 -36 144 4 39 15 90 24 114 27 74 21 111 -35 215 -50 94 -50 95 -34 126 15 30 19 31 53 25 20 -4 44 -12 52 -18z m1499 -130 c24 -27 19 -58 -16 -89 -26 -24 -163 -98 -163 -89 0 14 60 153 71 168 9 11 51 28 80 32 3 1 15 -10 28 -22z m125 -446 c9 -13 -61 -71 -85 -71 -22 0 -79 30 -79 41 0 11 31 21 90 29 30 4 58 8 62 9 4 0 9 -3 12 -8z m-258 -388 c110 -106 160 -192 167 -291 5 -56 2 -85 -14 -129 -30 -88 -26 -120 32 -227 50 -94 50 -95 34 -126 -15 -30 -19 -31 -53 -25 -20 4 -52 19 -71 33 -18 15 -41 32 -49 37 -9 6 -22 17 -28 25 -10 12 -42 15 -171 15 -150 0 -161 2 -215 27 -32 15 -77 42 -101 60 -43 33 -182 186 -175 193 1 2 64 66 138 142 74 76 167 171 205 211 180 186 165 174 194 152 14 -11 63 -55 107 -97z m-1379 -89 c22 -6 22 -6 -7 -49 -16 -24 -45 -53 -64 -65 -33 -20 -36 -20 -61 -4 -30 20 -30 16 -5 64 25 48 79 69 137 54z m153 -452 c-16 -26 -44 -65 -62 -86 -29 -34 -37 -37 -55 -28 -11 6 -26 25 -33 42 -12 29 -11 33 10 48 79 58 106 72 136 72 34 0 34 0 4 -48z m394 -52 c14 -50 15 -66 5 -100 -7 -23 -24 -50 -37 -61 -25 -19 -25 -19 -48 2 -42 39 -48 71 -23 120 26 52 70 109 80 104 3 -3 14 -31 23 -65z"/>
 </g>
 <g fill="#ffffff">
  <path d="M415 2187 c-8 -13 -20 -37 -26 -55 -10 -29 -7 -40 46 -139 57 -108 57 -108 37 -173 -11 -36 -24 -102 -27 -147 -7 -82 -7 -82 40 -160 33 -54 86 -116 172 -202 125 -123 125 -123 168 -81 48 47 34 54 188 -87 63 -57 70 -61 105 -56 46 7 71 37 72 83 0 30 -13 50 -85 133 -47 54 -85 104 -85 110 0 7 30 45 66 85 53 58 69 70 82 63 9 -6 59 -48 111 -95 88 -80 95 -84 130 -79 45 7 70 37 71 83 0 30 -13 50 -85 133 -47 54 -85 103 -85 109 0 7 12 25 27 40 27 28 27 28 -23 81 -28 28 -75 82 -106 118 -52 60 -64 68 -150 102 -101 39 -210 52 -318 37 -55 -7 -55 -7 -116 43 -89 74 -180 97 -209 54z"/>
  <path d="M1510 2202 c-34 -7 -35 -9 -44 -63 -5 -30 -5 -90 -1 -133 7 -78 7 -78 43 -73 38 7 88 48 98 81 4 12 21 51 39 88 32 63 32 67 15 83 -20 18 -98 27 -150 17z"/>
  <path d="M1944 2059 c-17 -5 -37 -15 -43 -23 -14 -17 -91 -205 -91 -223 0 -28 75 -14 151 27 89 49 106 65 125 109 20 48 18 64 -14 94 -30 29 -68 34 -128 16z"/>
  <path d="M2060 1600 c-97 -13 -130 -41 -97 -82 26 -33 62 -48 114 -48 44 0 58 5 88 31 31 27 36 37 33 68 -3 35 -5 36 -43 37 -22 1 -65 -2 -95 -6z"/>
  <path d="M1699 1285 c-41 -41 -96 -98 -124 -127 -27 -29 -122 -126 -210 -216 -88 -90 -162 -165 -164 -168 -3 -2 18 -28 45 -57 28 -28 65 -70 84 -92 71 -84 191 -153 280 -161 25 -2 68 -6 95 -9 28 -2 77 0 110 5 53 7 62 6 77 -11 9 -10 19 -19 23 -19 4 0 24 -15 46 -33 40 -35 133 -65 164 -54 9 4 26 28 37 54 21 48 21 48 -37 159 -57 111 -57 111 -36 176 17 52 20 81 17 161 -4 93 -6 101 -46 170 -40 68 -99 131 -231 247 -56 49 -56 49 -130 -25z"/>
  <path d="M412 1119 c-25 -8 -38 -22 -63 -70 -34 -68 -33 -70 30 -113 39 -27 39 -27 87 3 51 31 158 160 145 174 -12 12 -163 17 -199 6z"/>
  <path d="M638 720 c-32 -6 -71 -27 -129 -73 -28 -21 -31 -63 -9 -106 11 -22 28 -42 37 -44 68 -19 70 -18 108 26 20 23 54 71 75 107 37 60 38 65 23 82 -17 19 -42 21 -105 8z"/>
  <path d="M996 666 c-20 -25 -49 -72 -65 -106 -29 -62 -29 -62 -8 -98 34 -62 58 -82 92 -82 49 0 80 31 98 97 16 57 16 61 -7 137 -35 111 -54 120 -110 52z"/>
 </g>
</svg>
