<?xml version="1.0" encoding="utf-8"?>
<!DOCTYPE svg PUBLIC "-//W3C//DTD SVG 20010904//EN" "http://www.w3.org/TR/2001/REC-SVG-20010904/DTD/svg10.dtd">
<svg version="1.0" xmlns="http://www.w3.org/2000/svg" width="128" height="128" viewBox="0 0 1280 1280" preserveAspectRatio="xMidYMid meet">
 <g fill="#000000">
  <path d="M0 640 c0 -640 0 -640 638 -638 637 3 637 3 640 641 3 637 3 637 -638 637 -640 0 -640 0 -640 -640z m750 391 c0 -22 -16 -36 -24 -22 -8 12 3 41 15 41 5 0 9 -9 9 -19z m-452 -31 c34 -34 88 -40 132 -16 21 12 30 12 65 -2 22 -9 57 -29 78 -46 30 -24 37 -36 37 -65 0 -27 8 -44 37 -73 20 -21 32 -38 27 -38 -6 0 -23 14 -39 30 -42 44 -86 41 -136 -9 -51 -50 -54 -95 -9 -134 17 -15 30 -33 30 -39 0 -7 -17 5 -38 25 -27 27 -47 37 -69 37 -59 0 -140 130 -114 186 21 47 14 97 -19 129 -16 16 -30 32 -30 37 0 16 19 7 48 -22z m642 -38 c0 -11 -22 -32 -32 -32 -5 0 -4 9 2 20 11 20 30 28 30 12z m71 -187 c0 -13 -41 -19 -41 -7 0 11 20 22 33 18 5 -1 8 -6 8 -11z m-109 -167 c14 -18 35 -53 48 -77 21 -42 21 -46 6 -78 -25 -53 -21 -95 14 -128 16 -15 27 -32 24 -37 -4 -6 -21 4 -38 21 -36 35 -73 40 -128 17 -31 -13 -38 -13 -78 5 -25 11 -60 34 -78 52 -32 31 -32 31 80 144 62 62 116 113 119 113 4 0 18 -15 31 -32z m-622 -57 c0 -12 -29 -23 -41 -15 -5 3 -7 10 -4 15 8 12 45 12 45 0z m60 -181 c-11 -20 -30 -28 -30 -12 0 11 22 32 32 32 5 0 4 -9 -2 -20z m184 -83 c-3 -9 -10 -17 -15 -17 -11 0 -12 34 -2 43 11 12 24 -8 17 -26z"/>
 </g>
 <g fill="#ffffff">
  <path d="M700 1071 c-24 -46 -1 -121 37 -121 19 0 42 36 49 77 5 35 3 43 -14 52 -31 17 -60 13 -72 -8z"/>
  <path d="M226 1059 c-14 -11 -26 -27 -26 -35 0 -8 19 -35 41 -59 38 -41 41 -48 30 -71 -30 -66 4 -178 73 -244 31 -29 39 -33 55 -23 16 10 24 6 52 -24 52 -54 67 -59 95 -32 34 31 30 50 -18 97 -41 41 -41 41 1 83 42 42 42 42 84 1 47 -46 66 -51 90 -24 26 29 20 55 -23 97 -38 37 -39 40 -22 58 16 19 15 21 -37 67 -52 46 -124 80 -168 80 -12 0 -38 -7 -57 -16 -34 -17 -34 -17 -77 25 -24 22 -48 41 -55 41 -6 0 -23 -9 -38 -21z"/>
  <path d="M891 993 c-70 -85 -4 -143 77 -69 37 35 37 35 3 70 -19 20 -38 36 -42 36 -4 0 -21 -17 -38 -37z"/>
  <path d="M943 805 c-28 -19 -29 -46 -5 -68 21 -19 49 -21 87 -7 23 9 26 15 23 47 -3 37 -5 38 -43 41 -25 2 -49 -3 -62 -13z"/>
  <path d="M722 557 c-73 -74 -132 -139 -132 -145 0 -19 74 -83 125 -108 58 -28 92 -30 142 -9 36 15 36 15 79 -25 24 -22 47 -40 52 -40 9 0 44 36 57 58 5 9 -7 29 -35 57 -42 42 -42 43 -26 73 33 63 13 139 -61 230 -19 23 -42 42 -52 42 -9 0 -76 -60 -149 -133z"/>
  <path d="M222 589 c-19 -7 -23 -15 -20 -46 3 -36 5 -38 41 -41 70 -6 111 43 69 81 -20 19 -54 21 -90 6z"/>
  <path d="M282 395 c-37 -34 -37 -34 1 -72 38 -38 38 -38 73 1 74 85 9 148 -74 71z"/>
  <path d="M487 352 c-9 -10 -19 -36 -23 -59 -5 -35 -3 -43 14 -52 31 -17 60 -13 72 8 16 31 12 86 -8 104 -24 22 -35 21 -55 -1z"/>
 </g>
</svg>
